<?xml version="1.0" encoding="UTF-8"?> <svg xmlns="http://www.w3.org/2000/svg" id="Capa_1" data-name="Capa 1" viewBox="0 0 728.01 238.39"><defs><style> .cls-1 { fill: #fdee63; } .cls-1, .cls-2, .cls-3, .cls-4, .cls-5 { stroke-width: 0px; } .cls-2 { fill: #e83d60; } .cls-3 { fill: #3b3835; } .cls-4 { fill: #59c5f1; } .cls-5 { fill: #56b257; } </style></defs><g><path class="cls-3" d="m370.84,101.47c-3.01-2.78-6.48-4.87-10.44-6.28-3.94-1.41-8.19-2.14-12.71-2.14-4.73.03-8.98.61-12.71,1.78-3.7,1.18-6.93,2.8-9.66,4.84-2.72,2.05-4.98,4.43-6.75,7.1-1.76,2.66-3.08,5.54-3.96,8.57-.87,3.05-1.3,6.12-1.3,9.26v31.83c.03,2.29.57,4.34,1.65,6.14,1.09,1.8,2.65,3.23,4.63,4.28,1.98,1.04,4.31,1.57,7.03,1.6h5.66v-42.61c.02-3.51.61-6.51,1.76-8.97,1.16-2.46,2.78-4.33,4.86-5.63,2.08-1.27,4.48-1.93,7.23-1.93,4.9-.05,8.7,1.39,11.36,4.28,2.69,2.89,4.03,7.42,4.06,13.61v29.23c.03,2.29.59,4.34,1.72,6.14,1.11,1.8,2.72,3.23,4.79,4.28,2.05,1.04,4.51,1.57,7.36,1.6h5.09v-42.89c-.03-5.24-.9-9.86-2.6-13.89-1.72-4.05-4.08-7.44-7.07-10.19Z"></path><path class="cls-3" d="m301.47,136.67c-1.54-5.46-3.18-10.84-4.93-16.07-1.77-5.25-3.54-10.23-5.35-14.91-1.82-4.66-3.58-8.9-5.3-12.68-1.73-3.81-3.3-6.96-4.79-9.52-.9-1.52-2.08-2.93-3.54-4.23-1.47-1.29-3.21-2.34-5.24-3.14-2.02-.8-4.34-1.21-6.93-1.23h-7.93c-1.86,2.03-3.74,4.58-5.68,7.68-1.94,3.07-3.84,6.53-5.73,10.37-1.91,3.82-3.75,7.89-5.54,12.16-1.79,4.26-3.49,8.61-5.09,12.98-1.6,4.39-3.06,8.7-4.41,12.88-1.31,4.19-2.47,8.12-3.44,11.81-.97,3.7-1.72,6.95-2.27,9.81-.51,2.85-.8,5.15-.8,6.86-.03,2.89.66,5.1,2.08,6.65,1.38,1.57,3.67,2.34,6.84,2.37h7.5c.7-3.96,1.48-7.95,2.33-11.96.86-4.01,1.77-7.99,2.76-11.96h38.62c.49,1.97.96,4.17,1.38,6.63.45,2.43.87,5.19,1.3,8.27.24,1.52.87,2.98,1.89,4.34,1.03,1.37,2.47,2.45,4.34,3.32,1.84.86,4.1,1.32,6.79,1.35h7.92c-.66-4.94-1.56-10.11-2.74-15.49-1.15-5.39-2.52-10.81-4.05-16.29Zm-36.22-7.01h-15c.83-3.26,1.8-6.57,2.92-9.97,1.13-3.39,2.36-6.74,3.68-10.04,1.32-3.3,2.69-6.44,4.13-9.42,1.41-2.98,2.85-5.7,4.27-8.13,1.3,2.21,2.64,4.78,4.03,7.71,1.41,2.94,2.78,6.08,4.15,9.43,1.37,3.33,2.65,6.76,3.82,10.23,1.18,3.48,2.17,6.87,2.99,10.18h-14.99Z"></path><path class="cls-3" d="m539.02,107.88c-1.98-3.14-4.45-5.88-7.35-8.25-2.92-2.34-6.27-4.16-10.07-5.47-3.77-1.33-7.94-1.98-12.54-2.01h-.85c-5.8.13-10.95,1.17-15.45,3.12-4.69,2.04-8.63,4.89-11.81,8.51-3.21,3.63-5.61,7.87-7.21,12.68-1.63,4.81-2.46,9.99-2.46,15.57,0,3.92.52,7.72,1.55,11.36,1.03,3.64,2.55,7.03,4.55,10.15,2.01,3.12,4.46,5.85,7.38,8.2,2.9,2.31,6.24,4.13,10.04,5.45,3.78,1.3,7.94,1.96,12.55,1.98h.85c5.8-.14,10.97-1.16,15.44-3.1,4.69-2.03,8.63-4.87,11.83-8.49,3.19-3.62,5.59-7.8,7.22-12.6,1.6-4.81,2.43-10,2.43-15.55,0-3.94-.52-7.72-1.56-11.38-1.02-3.67-2.54-7.06-4.55-10.17Zm-15.34,34.87c-1.21,3.11-3.02,5.55-5.45,7.33-2.43,1.78-5.49,2.69-9.17,2.7-.29,0-.57,0-.85-.02-3.81-.13-6.95-1.06-9.43-2.78-2.69-1.86-4.67-4.53-5.95-8-1.27-3.47-1.88-7.65-1.88-12.55,0-4.09.61-7.69,1.83-10.81,1.22-3.14,3.04-5.6,5.47-7.37,2.43-1.78,5.47-2.69,9.1-2.72.28.01.57.01.85.03,3.76.13,6.88,1.06,9.39,2.78,2.66,1.87,4.66,4.55,5.94,8.03,1.3,3.51,1.93,7.71,1.93,12.65,0,4.03-.59,7.64-1.79,10.73Z"></path><path class="cls-3" d="m683.64,151.02c-2.6,1.02-5.31,1.72-8.12,2.14-2.8.4-5.56.61-8.22.59-2.19-.02-4.28-.24-6.22-.66-1.38-.3-2.7-.7-3.96-1.22-3.04-1.22-5.55-2.98-7.49-5.24-1.96-2.25-3.19-4.94-3.68-8.05h12.44c.92,0,1.82,0,2.7-.02,7.15-.09,13.07-.63,17.77-1.62,5.28-1.12,9.17-2.99,11.65-5.6,2.47-2.61,3.71-6.16,3.68-10.65-.03-4.41-.87-8.38-2.55-11.91-1.66-3.5-3.92-6.49-6.79-8.96-2.85-2.48-6.1-4.37-9.77-5.69-3.62-1.33-7.44-1.99-11.45-1.99-.86,0-1.71.03-2.54.08-4.48.26-8.64,1.17-12.47,2.72-4.55,1.84-8.48,4.51-11.81,7.99-3.34,3.48-5.92,7.68-7.73,12.61-1.84,4.92-2.76,10.45-2.79,16.61.03,4.51.71,8.68,2.08,12.5,1.37,3.82,3.26,7.24,5.66,10.26,2.4,3.04,5.21,5.61,8.37,7.72,3.16,2.11,6.57,3.73,10.21,4.85,2.77.85,5.6,1.38,8.49,1.58.89.06,1.78.1,2.69.1,5.21-.02,9.59-.43,13.15-1.28,3.54-.83,6.36-2.02,8.49-3.52,2.12-1.5,3.65-3.26,4.57-5.28.95-2.03,1.39-4.21,1.37-6.58v-5.74h-.7c-2.05,1.8-4.39,3.21-7,4.24Zm-37.7-27.86c.16-2.87.92-5.46,2.29-7.83,1.37-2.37,3.23-4.26,5.56-5.69,2.12-1.27,4.55-2.01,7.29-2.16.27-.02.56-.03.84-.03,2.95,0,5.5.41,7.64,1.23,2.15.82,3.82,2.04,5,3.68,1.17,1.65,1.76,3.69,1.79,6.14.03,1.31-.28,2.4-.92,3.31-.64.92-1.77,1.65-3.37,2.19-1.6.57-3.87.98-6.74,1.24-1.27.11-2.68.2-4.24.26-2.02.08-4.28.12-6.8.12h-8.49l.15-2.46Z"></path><path class="cls-3" d="m617.29,155.4c-1.63-1.21-3.56-2.91-5.85-5.12-3.38-3.36-6.6-6.87-9.67-10.51-3.09-3.65-6.13-7.28-9.15-10.93,1.6-1.98,3.54-4.24,5.75-6.78,2.22-2.55,4.55-5.19,7.03-7.92,2.47-2.73,4.88-5.37,7.26-7.88,2.36-2.53,4.51-4.73,6.42-6.64,1.9-1.92,3.41-3.33,4.53-4.24v-.68h-10.89c-2.03-.02-3.9.09-5.61.33-1.74.24-3.39.7-4.95,1.38-1.56.7-3.07,1.72-4.58,3.07-4.35,4.05-8.41,8.38-12.21,12.93-3.77,4.55-7.5,9.17-11.13,13.84v-43.98c0-2.39-.42-4.49-1.31-6.3-.9-1.82-2.31-3.26-4.25-4.29-1.9-1.02-4.38-1.54-7.45-1.56h-6.08v85.36c0,4.32,1.07,7.58,3.23,9.76,2.14,2.18,5.4,3.25,9.78,3.21l6.08-.14v-35.92c4.16,5.42,8.39,10.79,12.76,16.12,4.36,5.33,8.98,10.42,13.84,15.3,1.11,1.04,2.33,1.95,3.72,2.7,1.39.75,2.82,1.31,4.33,1.73,1.48.4,2.95.61,4.38.61,2.58,0,4.7-.34,6.37-1.03,1.65-.67,3-1.69,4.01-3.05,1.04-1.32,1.86-2.98,2.49-4.94-1.53-.45-2.97-1.02-4.33-1.66-1.39-.64-2.9-1.58-4.53-2.78Z"></path><path class="cls-3" d="m456.35,70.77c-1.93-1.02-4.38-1.54-7.39-1.56h-5.8v34.55c-1.02-2.16-2.55-4.12-4.53-5.87-2.01-1.73-4.26-3.11-6.77-4.14-2.04-.85-4.09-1.35-6.18-1.52-.49-.04-.98-.06-1.48-.07-5.56.03-10.46.96-14.73,2.83-4.27,1.86-7.87,4.55-10.78,8.05-2.93,3.48-5.11,7.68-6.62,12.57-1.48,4.9-2.24,10.38-2.24,16.43.03,5.1.94,9.87,2.73,14.35,1.76,4.46,4.27,8.4,7.5,11.81,3.21,3.41,6.95,6.1,11.25,8.04,4.32,1.93,8.98,2.91,14.03,2.95h.35c6.38-.05,11.85-.9,16.41-2.55,4.64-1.69,8.44-4.11,11.36-7.25,2.95-3.12,5.09-6.87,6.46-11.25,1.39-4.36,2.08-9.23,2.05-14.61v-51.9c0-2.48-.45-4.64-1.37-6.5-.92-1.85-2.33-3.31-4.25-4.36Zm-15.09,73.35c-1.08,3.11-2.73,5.51-4.99,7.14-2.27,1.64-5.14,2.49-8.67,2.49-.65,0-1.29-.05-1.92-.11-2.89-.32-5.52-1.33-7.87-3.03-2.87-2.08-5.14-5.01-6.78-8.79-1.66-3.75-2.5-8.21-2.53-13.34,0-2.99.38-5.75,1.13-8.29.73-2.52,1.79-4.73,3.19-6.62,1.38-1.89,3.04-3.35,4.99-4.4,1.93-1.05,4.13-1.57,6.53-1.59.45,0,.9,0,1.34.04,2.07.12,4,.56,5.85,1.28,2.24.91,4.2,2.35,5.89,4.33,1.7,1.98,3.02,4.57,3.99,7.78.97,3.21,1.44,7.1,1.47,11.7,0,4.46-.52,8.27-1.61,11.41Z"></path></g><g><path class="cls-1" d="m180.24,53.88c3.22,0,5.9-2.57,5.9-5.8s-2.63-5.86-5.85-5.86-5.85,2.63-5.85,5.86,2.58,5.8,5.8,5.8Z"></path><path class="cls-5" d="m45.98,194.15c6.87,6.45,16.1,10.43,26.25,10.43,12.94,0,24.46-6.69,31.48-16.68l-46.61-4.88-11.12,11.12Z"></path><g><path class="cls-2" d="m84.23,124.25h26.46V57.32h-.06c.03-.26.06-.52.06-.79,0-3.23-2.63-5.86-5.85-5.86s-5.85,2.63-5.85,5.86,2.68,5.8,5.9,5.8c1.71,0,3.23-.73,4.29-1.89v46.04c-7-41.6-38.1-72.67-75.37-72.67,0,12.73-.02,24.98.02,37.71.11,44.98,15.32,52.73,50.4,52.73Z"></path><path class="cls-2" d="m115.82,124.25h24.95c35.07,0,50.29-7.75,50.4-52.73.03-12.73.02-24.98.02-37.71-37.26,0-68.37,31.07-75.37,72.68v-57.78c1.06,1.16,2.58,1.89,4.29,1.89,3.22,0,5.9-2.57,5.9-5.8s-2.63-5.86-5.85-5.86-5.85,2.63-5.85,5.86c0,.26.02.51.05.76h-.05v78.69h1.51Zm64.47-82.03c3.22,0,5.85,2.63,5.85,5.86s-2.68,5.8-5.9,5.8-5.8-2.57-5.8-5.8,2.63-5.86,5.85-5.86Z"></path><path class="cls-4" d="m152.67,127.6h-38.36v39.02c.55,20.58,17.73,37.96,38.59,37.96s38.29-17.35,38.29-38.41-17.31-38.57-38.52-38.57Zm-27.68,16.73c-3.22,0-5.8-2.57-5.8-5.8s2.63-5.86,5.85-5.86,5.85,2.63,5.85,5.86-2.67,5.8-5.9,5.8Zm27.53,38.64c-9.34,0-16.91-7.57-16.91-16.9s7.57-16.9,16.91-16.9,16.9,7.57,16.9,16.9-7.57,16.9-16.9,16.9Z"></path><polygon class="cls-5" points="110.69 129.28 76.9 163.09 110.69 166.62 110.69 129.28"></polygon><path class="cls-5" d="m63.7,173.07l-7.39-41.89c-13.24,6.17-22.49,19.64-22.49,34.99,0,10.14,3.99,19.41,10.49,26.31l11.28-11.28,8.12-8.12Z"></path><path class="cls-5" d="m58.61,181.51l46.14,4.82c3.38-5.33,5.52-11.5,5.98-18.05l-35.22-3.68-16.9,16.91Z"></path><path class="cls-5" d="m72.46,127.57c-5.09,0-9.96,1.01-14.43,2.83l7.34,41,8.62-8.63,8.12-8.16-4.77-27.05h-4.88Z"></path><polygon class="cls-5" points="109.15 127.57 79.24 127.57 83.79 152.91 109.15 127.57"></polygon><path class="cls-1" d="m125.04,132.67c-3.22,0-5.85,2.63-5.85,5.86s2.58,5.8,5.8,5.8,5.9-2.57,5.9-5.8-2.63-5.86-5.85-5.86Z"></path><path class="cls-1" d="m152.52,149.16c-9.34,0-16.91,7.57-16.91,16.9s7.57,16.9,16.91,16.9,16.9-7.57,16.9-16.9-7.57-16.9-16.9-16.9Z"></path></g></g></svg> 