<?xml version="1.0" standalone="no"?>
<!DOCTYPE svg PUBLIC "-//W3C//DTD SVG 20010904//EN"
 "http://www.w3.org/TR/2001/REC-SVG-20010904/DTD/svg10.dtd">
<svg version="1.0" xmlns="http://www.w3.org/2000/svg"
 width="954.000000pt" height="886.000000pt" viewBox="0 0 954.000000 886.000000"
 preserveAspectRatio="xMidYMid meet">
<metadata>
Created by potrace 1.16, written by Peter Selinger 2001-2019
</metadata>
<g transform="translate(0.000000,886.000000) scale(0.100000,-0.100000)"
fill="#000000" stroke="none">
<path d="M2040 4575 l0 -3205 440 0 c384 0 440 2 440 15 0 13 -53 15 -420 15
l-420 0 0 3175 0 3175 2130 0 2130 0 0 -3175 0 -3175 -480 0 c-420 0 -480 -2
-480 -15 0 -13 62 -15 495 -15 l495 0 0 3205 0 3205 -2165 0 -2165 0 0 -3205z"/>
<path d="M3867 7276 c-26 -7 -50 -15 -52 -18 -3 -3 23 -11 57 -19 l63 -14 -62
-6 c-107 -10 -163 -73 -163 -183 0 -107 61 -179 167 -199 131 -25 197 -179
127 -295 -43 -70 -115 -103 -238 -110 l-94 -5 -27 -81 c-36 -112 -48 -212 -42
-338 10 -189 69 -346 194 -515 37 -51 82 -119 99 -150 17 -32 164 -290 326
-573 162 -283 316 -555 343 -603 26 -49 51 -85 55 -80 33 34 132 238 151 311
16 61 25 80 30 66 4 -10 28 -100 54 -199 59 -222 124 -439 160 -531 30 -77 76
-173 85 -179 18 -11 131 120 178 205 55 100 75 189 75 335 -1 132 -14 207 -62
360 -68 218 -228 500 -434 768 -33 42 -57 80 -55 83 3 3 133 -122 289 -278
423 -423 673 -634 868 -733 86 -43 91 -38 91 94 0 240 -115 441 -375 660 -50
42 -213 150 -282 187 -29 15 -51 29 -49 31 3 4 64 -19 381 -144 157 -61 374
-143 380 -143 11 0 3 59 -14 116 -35 111 -119 243 -144 227 -6 -4 -7 -1 -2 6
8 13 -4 26 -70 77 -98 76 -246 139 -408 174 -102 21 -350 45 -399 38 l-30 -5
46 44 c50 49 56 69 28 103 -26 32 -87 31 -146 -4 -24 -14 -47 -26 -50 -26 -3
0 -6 22 -6 48 0 63 -24 110 -64 127 -26 11 -34 11 -52 0 -21 -13 -22 -12 -28
18 -14 82 -18 165 -7 171 22 14 77 -25 112 -79 19 -30 37 -54 41 -55 4 0 15
15 24 33 20 39 54 77 69 77 14 0 124 121 244 269 71 88 89 116 78 122 -8 5
-45 13 -84 19 -69 11 -150 4 -231 -19 -62 -18 -160 -81 -206 -132 -50 -56
-111 -158 -129 -214 -16 -55 -27 -41 -27 34 0 106 -27 226 -69 311 -51 101
-54 116 -52 255 2 132 -14 208 -66 301 -38 68 -147 174 -218 211 -114 59 -267
79 -378 49z"/>
<path d="M3318 7136 c-144 -19 -136 -29 79 -103 213 -74 204 -72 171 -37 -30
33 -48 89 -41 128 5 26 5 26 -58 25 -35 -1 -103 -6 -151 -13z"/>
<path d="M2430 6266 c0 -42 39 -301 65 -431 99 -497 244 -853 468 -1153 38
-51 68 -94 66 -96 -2 -2 -37 -13 -76 -25 -40 -12 -73 -23 -73 -26 0 -2 39 -37
88 -78 175 -149 342 -246 496 -288 80 -21 109 -23 339 -19 65 1 120 0 123 -2
2 -3 -36 -119 -86 -258 -101 -282 -116 -336 -125 -430 -7 -75 12 -196 45 -283
25 -65 104 -189 146 -227 l27 -25 -7 25 c-4 14 -9 86 -13 160 -8 184 16 335
79 513 12 32 24 54 28 50 3 -4 19 -39 35 -78 25 -63 102 -186 124 -199 18 -11
109 97 159 186 46 85 101 236 131 363 18 72 42 217 38 221 -2 2 -18 -16 -36
-41 -76 -106 -189 -200 -313 -261 -50 -24 -59 -26 -74 -13 -52 43 -71 185 -36
264 l18 39 -30 61 c-28 55 -31 68 -31 160 l0 100 -50 -17 c-27 -10 -62 -17
-77 -18 -27 0 -27 1 -22 44 7 47 -9 132 -34 181 -8 16 -62 77 -121 135 -166
166 -252 309 -327 546 -37 116 -38 124 -42 297 -3 141 0 193 13 255 18 81 52
192 79 254 20 46 7 81 -35 98 -48 20 -99 -4 -129 -60 -17 -32 -40 -118 -40
-152 0 -33 -4 -34 -38 -9 -81 56 -158 77 -209 56 -34 -14 -62 -59 -56 -87 6
-23 -2 -23 -40 4 -17 12 -65 40 -106 63 -63 33 -77 45 -79 68 -2 17 1 27 9 27
33 0 -73 52 -223 110 l-48 18 0 -22z"/>
<path d="M5335 6143 c-27 -9 -69 -24 -92 -34 -24 -11 -45 -19 -47 -19 -3 0
-21 -9 -40 -21 l-36 -21 20 -25 c11 -14 20 -36 20 -49 0 -25 -17 -75 -28 -84
-4 -3 -15 -14 -24 -25 -16 -20 -15 -20 60 -20 61 0 83 -4 104 -20 32 -23 36
-49 11 -65 -28 -17 31 -3 150 35 114 37 232 87 288 121 42 26 91 82 86 98 -7
23 -130 112 -176 129 -62 22 -225 22 -296 0z"/>
<path d="M4773 4259 c-17 -24 -49 -80 -71 -125 l-40 -80 65 -125 c36 -68 78
-167 94 -219 49 -162 58 -180 84 -180 12 0 27 6 33 13 7 8 -10 120 -59 377
-38 200 -70 369 -72 374 -2 6 -17 -10 -34 -35z"/>
<path d="M4615 3988 c2 -13 11 -117 20 -233 19 -263 21 -277 43 -273 21 4 30
71 32 254 l2 132 -47 71 c-26 39 -49 71 -51 71 -2 0 -2 -10 1 -22z"/>
<path d="M5000 2884 c-88 -73 -86 -69 -66 -98 9 -14 21 -26 27 -26 21 0 119
53 141 77 l22 24 -34 34 -35 34 -55 -45z"/>
<path d="M2817 2723 c-4 -3 -7 -116 -7 -251 l0 -244 -31 -29 -31 -29 19 -32
c10 -17 23 -33 29 -35 15 -5 90 52 111 84 16 24 18 57 21 285 l3 258 -54 0
c-29 0 -57 -3 -60 -7z"/>
<path d="M3206 2503 c-47 -126 -86 -234 -86 -241 0 -8 18 -12 53 -12 l52 0 20
58 20 57 74 0 74 0 20 -57 19 -58 58 0 59 0 -34 93 c-18 50 -57 157 -87 237
l-53 145 -51 3 -51 3 -87 -228z"/>
<path d="M3758 2724 c-5 -4 -8 -113 -8 -241 l0 -234 58 3 57 3 3 98 c4 137 31
132 95 -18 l34 -80 62 -3 c61 -3 63 -3 55 20 -15 48 -75 166 -93 182 -18 16
-17 18 15 50 29 29 34 41 34 80 0 63 -23 104 -68 123 -40 17 -232 31 -244 17z"/>
<path d="M4310 2490 l0 -242 118 4 c142 5 186 23 228 93 50 87 43 236 -16 307
-46 55 -88 70 -217 76 l-113 5 0 -243z m185 146 c48 -20 68 -65 68 -151 0
-108 -36 -155 -119 -155 l-24 0 0 153 c0 85 3 157 7 160 10 11 30 8 68 -7z"/>
<path d="M4900 2490 l0 -240 55 0 55 0 0 240 0 240 -55 0 -55 0 0 -240z"/>
<path d="M5240 2491 l0 -241 55 0 55 0 1 33 c0 17 0 82 -1 142 l-1 110 93
-142 93 -143 48 0 47 0 0 240 0 240 -56 0 -56 0 4 -140 c2 -77 1 -140 -2 -139
-3 0 -46 62 -96 137 l-90 137 -47 3 -47 3 0 -240z"/>
<path d="M2720 1850 l0 -170 79 0 c126 0 161 20 161 94 0 34 -30 76 -53 76 -5
0 2 9 17 21 20 16 26 29 26 59 0 67 -40 90 -156 90 l-74 0 0 -170z"/>
<path d="M3173 2000 c-47 -28 -65 -62 -70 -134 -9 -108 25 -169 107 -187 50
-11 115 3 147 33 76 71 66 243 -17 292 -39 23 -127 21 -167 -4z m123 -61 c15
-17 19 -36 19 -96 0 -67 -3 -77 -24 -94 -31 -25 -47 -24 -76 6 -21 20 -25 34
-25 85 0 79 20 120 59 120 16 0 36 -9 47 -21z"/>
<path d="M3517 2013 c-4 -3 -7 -17 -7 -29 0 -20 6 -23 43 -26 l42 -3 3 -137 3
-138 39 0 40 0 0 140 0 140 40 0 c28 0 40 4 40 14 0 8 3 21 6 30 5 14 -9 16
-118 16 -69 0 -128 -3 -131 -7z"/>
<path d="M3967 2013 c-6 -10 -127 -324 -127 -330 0 -2 19 -3 42 -1 37 3 42 6
53 38 11 34 14 35 67 38 l55 3 12 -41 c11 -38 14 -40 51 -40 22 0 40 3 40 8 0
4 -26 79 -58 167 l-58 160 -36 3 c-20 2 -38 -1 -41 -5z"/>
<path d="M4300 1850 l0 -170 41 0 41 0 -4 95 c-1 52 -1 95 2 94 3 0 32 -43 65
-94 58 -92 61 -95 98 -95 l37 0 0 170 0 170 -40 0 -40 0 0 -102 0 -103 -68
102 c-62 95 -69 103 -99 103 l-33 0 0 -170z"/>
<path d="M4740 1850 l0 -170 45 0 45 0 0 170 0 170 -45 0 -45 0 0 -170z"/>
<path d="M5039 1993 c-42 -36 -59 -79 -59 -155 0 -61 22 -120 54 -141 25 -16
87 -27 124 -21 57 9 65 16 53 47 -9 24 -13 26 -36 17 -39 -15 -54 -12 -80 15
-22 21 -25 33 -25 92 0 81 17 113 59 113 15 0 32 -5 39 -12 10 -10 17 -7 35
10 l22 23 -24 20 c-37 30 -121 26 -162 -8z"/>
<path d="M5435 2011 c-55 -24 -85 -85 -85 -171 0 -109 47 -162 144 -163 62 -1
110 22 136 66 44 71 33 191 -21 243 -25 24 -39 29 -92 31 -34 2 -71 -1 -82 -6z
m109 -73 c35 -54 27 -176 -14 -198 -28 -15 -38 -13 -65 15 -22 21 -25 33 -25
92 0 82 17 113 60 113 20 0 35 -8 44 -22z"/>
</g>
</svg>
